<svg width="16" height="12" viewBox="0 0 16 12" fill="none" xmlns="http://www.w3.org/2000/svg">
<path fill-rule="evenodd" clip-rule="evenodd" d="M4.45998 3.49535C3.45579 4.33346 2.75305 5.31833 2.39795 5.88061C2.37439 5.91792 2.35791 5.94405 2.34413 5.96673C2.33505 5.9817 2.32905 5.99206 2.32503 5.99927L2.32503 6.00008L2.32503 6.00089C2.32905 6.00811 2.33505 6.01846 2.34413 6.03343C2.35791 6.05611 2.37439 6.08224 2.39795 6.11955C2.75306 6.68183 3.45579 7.6667 4.45998 8.50481C5.46261 9.34161 6.72558 10.0001 8.22114 10.0001C9.71669 10.0001 10.9797 9.34161 11.9823 8.50481C12.9865 7.6667 13.6892 6.68183 14.0443 6.11955C14.0679 6.08224 14.0844 6.05611 14.0981 6.03343C14.1072 6.01846 14.1132 6.0081 14.1172 6.00089L14.1172 6.00008L14.1172 5.99927C14.1132 5.99206 14.1072 5.9817 14.0981 5.96673C14.0844 5.94405 14.0679 5.91792 14.0443 5.88061C13.6892 5.31833 12.9865 4.33346 11.9823 3.49535C10.9797 2.65855 9.71669 2.00008 8.22114 2.00008C6.72558 2.00008 5.46261 2.65855 4.45998 3.49535ZM3.60563 2.4717C4.75803 1.50989 6.31335 0.666748 8.22114 0.666748C10.1289 0.666748 11.6842 1.50989 12.8366 2.4717C13.9875 3.4322 14.7765 4.54294 15.1717 5.16865C15.1769 5.17692 15.1822 5.18535 15.1877 5.19397C15.2661 5.3174 15.3679 5.47765 15.4194 5.70219C15.461 5.8835 15.461 6.11667 15.4194 6.29797C15.3679 6.52251 15.2661 6.68277 15.1877 6.80619C15.1822 6.81481 15.1769 6.82325 15.1717 6.83152C14.7765 7.45722 13.9875 8.56796 12.8366 9.52846C11.6842 10.4903 10.1289 11.3334 8.22114 11.3334C6.31335 11.3334 4.75803 10.4903 3.60563 9.52846C2.4548 8.56796 1.66578 7.45722 1.27061 6.83152C1.26539 6.82325 1.26003 6.81481 1.25456 6.80619C1.17614 6.68277 1.07433 6.52251 1.02287 6.29797C0.98131 6.11667 0.98131 5.8835 1.02287 5.70219C1.07433 5.47765 1.17614 5.3174 1.25456 5.19397C1.26003 5.18535 1.26539 5.17691 1.27061 5.16865C1.66578 4.54294 2.4548 3.4322 3.60563 2.4717ZM8.22114 4.66675C7.48476 4.66675 6.8878 5.2637 6.8878 6.00008C6.8878 6.73646 7.48476 7.33341 8.22114 7.33341C8.95751 7.33341 9.55447 6.73646 9.55447 6.00008C9.55447 5.2637 8.95751 4.66675 8.22114 4.66675ZM5.55447 6.00008C5.55447 4.52732 6.74838 3.33341 8.22114 3.33341C9.69389 3.33341 10.8878 4.52732 10.8878 6.00008C10.8878 7.47284 9.69389 8.66675 8.22114 8.66675C6.74838 8.66675 5.55447 7.47284 5.55447 6.00008Z" fill="#718198"/>
</svg>
