<svg width="15" height="16" viewBox="0 0 15 16" fill="none" xmlns="http://www.w3.org/2000/svg">
<path fill-rule="evenodd" clip-rule="evenodd" d="M12.7104 4.05333L7.59973 9.16396L9.15514 13.1636L12.7104 4.05333ZM6.65692 8.22115L11.7675 3.11052L2.6573 6.66574L6.65692 8.22115ZM13.5858 0.982905C13.7079 0.947432 13.9536 0.883689 14.2174 0.971832C14.5155 1.07142 14.7495 1.30535 14.849 1.60345C14.9372 1.8673 14.8734 2.11294 14.838 2.23506C14.7993 2.36815 14.7374 2.52676 14.6753 2.6859L10.2636 13.9907C10.1943 14.1685 10.127 14.3408 10.0613 14.4738C10.0045 14.5887 9.87802 14.8329 9.61561 14.9693C9.32624 15.1196 8.98174 15.1194 8.69254 14.9687C8.43029 14.8321 8.30413 14.5877 8.24745 14.4727C8.18185 14.3397 8.11485 14.1673 8.04567 13.9894L6.30571 9.51517L1.85505 7.78436C1.8472 7.78131 1.83937 7.77826 1.83154 7.77522C1.65357 7.70604 1.48121 7.63903 1.34814 7.57343C1.23317 7.51675 0.988797 7.39058 0.852164 7.12834C0.701489 6.83914 0.701286 6.49464 0.851621 6.20527C0.987946 5.94286 1.23217 5.8164 1.34708 5.75959C1.48006 5.69383 1.65235 5.62663 1.83024 5.55723C1.83806 5.55418 1.84589 5.55112 1.85374 5.54806L13.135 1.14563C13.2941 1.08349 13.4527 1.02156 13.5858 0.982905Z" fill="#718198"/>
</svg>
