<svg width="16" height="14" viewBox="0 0 16 14" fill="none" xmlns="http://www.w3.org/2000/svg">
<path fill-rule="evenodd" clip-rule="evenodd" d="M8.01608 1.47794C6.45615 0.11468 4.14918 -0.164291 2.35764 1.36644C0.419782 3.02219 0.138229 5.81072 1.67064 7.78263C2.25232 8.53113 3.38765 9.65565 4.47873 10.6855C5.58258 11.7274 6.68388 12.7119 7.22699 13.1929L7.23733 13.2021C7.28839 13.2473 7.35196 13.3037 7.4129 13.3496C7.48586 13.4045 7.5906 13.4727 7.73047 13.5145C7.91641 13.5699 8.11628 13.5699 8.30222 13.5145C8.44209 13.4727 8.54683 13.4045 8.61979 13.3496C8.68073 13.3037 8.7443 13.2473 8.79537 13.2021L8.8057 13.1929C9.34881 12.7119 10.4501 11.7274 11.554 10.6855C12.645 9.65565 13.7804 8.53113 14.362 7.78263C15.8886 5.8183 15.6505 3.00825 13.6681 1.36059C11.8566 -0.145027 9.57426 0.114162 8.01608 1.47794ZM7.50973 2.85716C6.37302 1.52825 4.56617 1.23317 3.22377 2.38014C1.82156 3.57822 1.63288 5.56114 2.72344 6.96447C3.23217 7.6191 4.29204 8.67581 5.39394 9.71587C6.42263 10.6868 7.45163 11.6096 8.01635 12.1109C8.58107 11.6096 9.61006 10.6868 10.6388 9.71587C11.7407 8.67581 12.8005 7.6191 13.3092 6.96447C14.4057 5.55356 14.2309 3.56213 12.8159 2.38599C11.4379 1.2407 9.65465 1.53413 8.52296 2.85716C8.3963 3.00524 8.2112 3.09049 8.01635 3.09049C7.82149 3.09049 7.63639 3.00524 7.50973 2.85716Z" fill="#718198"/>
</svg>
