<svg width="21" height="20" viewBox="0 0 21 20" fill="none" xmlns="http://www.w3.org/2000/svg">
<path d="M0.220703 20L1.63426 14.8669C0.76034 13.3603 0.301887 11.654 0.306663 9.9097C0.306663 4.44392 4.77657 0 10.2637 0C12.9284 0 15.4308 1.03137 17.3076 2.90399C19.1892 4.77662 20.2255 7.26711 20.2207 9.91445C20.2207 15.3802 15.7508 19.8242 10.2589 19.8242H10.2541C8.58746 19.8242 6.94945 19.4059 5.49291 18.6169L0.220703 20ZM5.74601 16.8251L6.04687 17.0057C7.31716 17.7567 8.7737 18.1511 10.2589 18.1559H10.2637C14.8243 18.1559 18.5397 14.4629 18.5397 9.9192C18.5397 7.71863 17.6801 5.65114 16.1185 4.09221C14.5569 2.53327 12.4748 1.67776 10.2637 1.67776C5.70303 1.673 1.98765 5.36597 1.98765 9.9097C1.98765 11.4639 2.42223 12.98 3.25317 14.2918L3.44897 14.6055L2.61325 17.6426L5.74601 16.8251Z" fill="white"/>
<path d="M0.569289 19.653L1.93509 14.6958C1.08982 13.2462 0.645697 11.597 0.645697 9.91445C0.650473 4.63878 4.96279 0.346954 10.2636 0.346954C12.8377 0.346954 15.2493 1.34505 17.064 3.15114C18.8787 4.95722 19.8768 7.36217 19.8768 9.9192C19.8768 15.1949 15.5597 19.4867 10.2636 19.4867H10.2589C8.64951 19.4867 7.06881 19.0827 5.66479 18.3222L0.569289 19.653Z" fill="url(#paint0_linear_1641_34)"/>
<path d="M0.220703 20L1.63426 14.8669C0.76034 13.3603 0.301887 11.654 0.306663 9.9097C0.306663 4.44392 4.77657 0 10.2637 0C12.9284 0 15.4308 1.03137 17.3076 2.90399C19.1892 4.77662 20.2255 7.26711 20.2207 9.91445C20.2207 15.3802 15.7508 19.8242 10.2589 19.8242H10.2541C8.58746 19.8242 6.94945 19.4059 5.49291 18.6169L0.220703 20ZM5.74601 16.8251L6.04687 17.0057C7.31716 17.7567 8.7737 18.1511 10.2589 18.1559H10.2637C14.8243 18.1559 18.5397 14.4629 18.5397 9.9192C18.5397 7.71863 17.6801 5.65114 16.1185 4.09221C14.5569 2.53327 12.4748 1.67776 10.2637 1.67776C5.70303 1.673 1.98765 5.36597 1.98765 9.9097C1.98765 11.4639 2.42223 12.98 3.25317 14.2918L3.44897 14.6055L2.61325 17.6426L5.74601 16.8251Z" fill="url(#paint1_linear_1641_34)"/>
<path fill-rule="evenodd" clip-rule="evenodd" d="M7.77556 5.76521C7.58931 5.35171 7.39351 5.34221 7.21682 5.33746C7.07355 5.3327 6.90641 5.3327 6.73926 5.3327C6.57212 5.3327 6.30469 5.39449 6.07546 5.64164C5.84624 5.88879 5.20631 6.48765 5.20631 7.70913C5.20631 8.92586 6.09934 10.1046 6.2235 10.2709C6.34767 10.4373 7.94748 13.0181 10.4737 14.0114C12.575 14.8384 13.0048 14.6721 13.4585 14.6293C13.9121 14.5865 14.9293 14.0304 15.1394 13.4506C15.3448 12.8707 15.3448 12.3764 15.2827 12.2719C15.2206 12.1673 15.0535 12.1055 14.8052 11.9819C14.5568 11.8584 13.3343 11.2595 13.1051 11.174C12.8758 11.0932 12.7087 11.0504 12.5463 11.2975C12.3792 11.5447 11.9016 12.1008 11.7584 12.2671C11.6151 12.4335 11.4671 12.4525 11.2187 12.3289C10.9704 12.2053 10.1681 11.9439 9.21777 11.0979C8.47756 10.442 7.97613 9.62928 7.83286 9.38213C7.6896 9.13499 7.81854 9.00191 7.9427 8.87833C8.05254 8.76902 8.19103 8.58841 8.31519 8.44582C8.43936 8.30324 8.48234 8.19867 8.56352 8.03232C8.64471 7.86597 8.6065 7.72339 8.54442 7.59981C8.48234 7.48099 7.99523 6.25476 7.77556 5.76521Z" fill="white"/>
<defs>
<linearGradient id="paint0_linear_1641_34" x1="10.2202" y1="19.999" x2="10.2202" y2="-0.000699748" gradientUnits="userSpaceOnUse">
<stop stop-color="#20B038"/>
<stop offset="1" stop-color="#60D66A"/>
</linearGradient>
<linearGradient id="paint1_linear_1641_34" x1="10.2226" y1="19.9981" x2="10.2226" y2="0" gradientUnits="userSpaceOnUse">
<stop stop-color="#F9F9F9"/>
<stop offset="1" stop-color="white"/>
</linearGradient>
</defs>
</svg>
