<svg width="19" height="20" viewBox="0 0 19 20" fill="none" xmlns="http://www.w3.org/2000/svg">
<path fill-rule="evenodd" clip-rule="evenodd" d="M9.86702 2.29223C10.81 1.38144 12.073 0.877469 13.384 0.888861C14.695 0.900253 15.9491 1.4261 16.8761 2.35314C17.8032 3.28018 18.329 4.53424 18.3404 5.84522C18.3518 7.15621 17.8478 8.41922 16.937 9.36223L16.9269 9.37256L14.427 11.8725C13.9201 12.3795 13.31 12.7717 12.6383 13.0222C11.9666 13.2728 11.2488 13.376 10.5336 13.3248C9.81849 13.2736 9.12272 13.0691 8.49353 12.7254C7.86434 12.3816 7.31643 11.9066 6.88698 11.3325C6.61131 10.9639 6.68659 10.4417 7.05514 10.166C7.42368 9.89033 7.94592 9.96561 8.22159 10.3342C8.50789 10.7169 8.87316 11.0336 9.29262 11.2628C9.71208 11.492 10.1759 11.6282 10.6527 11.6624C11.1294 11.6965 11.608 11.6277 12.0558 11.4607C12.5037 11.2936 12.9103 11.0322 13.2483 10.6942L15.743 8.19942C16.3472 7.57128 16.6814 6.7314 16.6738 5.85971C16.6662 4.98572 16.3156 4.14968 15.6976 3.53165C15.0796 2.91362 14.2435 2.56306 13.3695 2.55546C12.4975 2.54789 11.6572 2.8824 11.029 3.4871L9.60015 4.90761C9.27377 5.2321 8.74613 5.23056 8.42165 4.90417C8.09716 4.57779 8.0987 4.05015 8.42508 3.72567L9.85842 2.30067L9.86702 2.29223ZM5.80358 6.97771C6.47533 6.72712 7.19313 6.62394 7.90827 6.67516C8.62341 6.72637 9.31918 6.93079 9.94837 7.27455C10.5776 7.61831 11.1255 8.09336 11.5549 8.66749C11.8306 9.03603 11.7553 9.55827 11.3868 9.83394C11.0182 10.1096 10.496 10.0343 10.2203 9.66579C9.93401 9.28303 9.56874 8.96633 9.14928 8.73716C8.72982 8.50799 8.26597 8.37171 7.78921 8.33756C7.31245 8.30342 6.83392 8.37221 6.38608 8.53927C5.93824 8.70632 5.53157 8.96774 5.19365 9.30579L2.69894 11.8005C2.09475 12.4286 1.76054 13.2685 1.76811 14.1402C1.77571 15.0142 2.12627 15.8503 2.7443 16.4683C3.36232 17.0863 4.19836 17.4369 5.07235 17.4445C5.94407 17.4521 6.78397 17.1178 7.41211 16.5136L8.83169 15.094C9.15713 14.7686 9.68477 14.7686 10.0102 15.094C10.3356 15.4195 10.3356 15.9471 10.0102 16.2726L8.58521 17.6976L8.57488 17.7077C7.63187 18.6185 6.36885 19.1225 5.05787 19.1111C3.74689 19.0997 2.49283 18.5738 1.56578 17.6468C0.638744 16.7198 0.112899 15.4657 0.101507 14.1547C0.0901153 12.8437 0.594087 11.5807 1.50488 10.6377L1.51503 10.6274L4.01492 8.12749C4.52179 7.62047 5.13187 7.22828 5.80358 6.97771Z" fill="black"/>
</svg>
